<?xml version="1.0" encoding="UTF-8"?>
<!DOCTYPE svg PUBLIC "-//W3C//DTD SVG 1.1//EN" "http://www.w3.org/Graphics/SVG/1.1/DTD/svg11.dtd">
<svg xmlns="http://www.w3.org/2000/svg" version="1.1" width="347px" height="331px" style="shape-rendering:geometricPrecision; text-rendering:geometricPrecision; image-rendering:optimizeQuality; fill-rule:evenodd; clip-rule:evenodd" xmlns:xlink="http://www.w3.org/1999/xlink">
<g><path style="opacity:0.925" fill="#fefefe" d="M 156.5,5.5 C 225.409,2.36274 277.576,30.0294 313,88.5C 339,140.167 339,191.833 313,243.5C 277.601,302.123 225.434,329.623 156.5,326C 87.1702,316.329 41.0035,278.496 18,212.5C 0.892087,144.505 18.3921,87.3382 70.5,41C 95.8757,21.144 124.542,9.31067 156.5,5.5 Z"/></g>
<g><path style="opacity:1" fill="#d9fdf7" d="M 78.5,53.5 C 117.331,52.3355 156.331,52.1688 195.5,53C 198.036,53.1862 200.369,53.6862 202.5,54.5C 161.512,53.5527 120.512,53.2194 79.5,53.5C 79.1667,53.5 78.8333,53.5 78.5,53.5 Z"/></g>
<g><path style="opacity:1" fill="#4db086" d="M 79.5,53.5 C 120.512,53.2194 161.512,53.5527 202.5,54.5C 204.099,54.2322 205.432,54.5655 206.5,55.5C 165.207,55.433 123.873,55.5997 82.5,56C 82.1703,90.4433 81.1703,124.61 79.5,158.5C 79.5,123.5 79.5,88.5 79.5,53.5 Z"/></g>
<g><path style="opacity:1" fill="#40b883" d="M 206.5,55.5 C 238.294,58.3795 262.294,73.3795 278.5,100.5C 287.436,119.656 292.77,139.656 294.5,160.5C 294.676,165.88 294.342,171.213 293.5,176.5C 293.305,202.914 286.139,227.247 272,249.5C 266.635,256.031 260.802,262.031 254.5,267.5C 250.465,269.848 246.465,272.182 242.5,274.5C 235.873,277.82 228.873,280.153 221.5,281.5C 216.29,281.299 211.29,281.966 206.5,283.5C 207.735,281.227 207.402,279.394 205.5,278C 179.502,277.5 153.502,277.333 127.5,277.5C 127.592,273.929 125.926,272.762 122.5,274C 119,277.5 115.5,281 112,284.5C 111.626,283.584 111.126,282.75 110.5,282C 105.177,281.501 99.8437,281.334 94.5,281.5C 94.5,279.5 94.5,277.5 94.5,275.5C 99.5111,275.666 104.511,275.499 109.5,275C 110.38,273.644 110.714,272.144 110.5,270.5C 112.655,270.628 114.655,270.128 116.5,269C 115,268.833 113.5,268.667 112,268.5C 106.26,270.024 100.426,270.691 94.5,270.5C 94.5,269.5 94.5,268.5 94.5,267.5C 99.7041,266.355 105.037,265.689 110.5,265.5C 110.67,264.178 110.337,263.011 109.5,262C 106.77,261.272 104.103,261.438 101.5,262.5C 98.4679,261.988 97.3013,260.322 98,257.5C 104.576,258.549 111.243,259.216 118,259.5C 144.004,258.197 170.004,258.197 196,259.5C 204.2,256.802 212.7,255.302 221.5,255C 222.337,253.989 222.67,252.822 222.5,251.5C 226.637,250.513 230.637,249.18 234.5,247.5C 234.5,246.5 234.5,245.5 234.5,244.5C 243.219,238.281 250.385,230.615 256,221.5C 257.411,219.35 258.245,217.016 258.5,214.5C 261.402,209.599 263.402,204.265 264.5,198.5C 265.558,197.4 266.392,196.066 267,194.5C 267.075,190.267 267.908,186.267 269.5,182.5C 268.555,173.535 268.221,164.535 268.5,155.5C 268.705,147.815 267.039,140.815 263.5,134.5C 262.833,134.5 262.5,134.167 262.5,133.5C 261.962,131.883 261.629,130.216 261.5,128.5C 262.115,124.04 261.115,120.04 258.5,116.5C 257.675,115.614 256.675,115.281 255.5,115.5C 256.244,112.05 254.91,110.384 251.5,110.5C 251.5,109.167 251.5,107.833 251.5,106.5C 249.315,106.296 247.315,105.63 245.5,104.5C 242.474,101.805 239.474,99.1379 236.5,96.5C 230.466,88.9792 222.466,84.8125 212.5,84C 206.461,83.6635 200.461,82.9968 194.5,82C 164.168,81.5 133.835,81.3334 103.5,81.5C 103.5,108.5 103.5,135.5 103.5,162.5C 95.5,162.5 87.5,162.5 79.5,162.5C 79.5,161.167 79.5,159.833 79.5,158.5C 81.1703,124.61 82.1703,90.4433 82.5,56C 123.873,55.5997 165.207,55.433 206.5,55.5 Z"/></g>
<g><path style="opacity:1" fill="#82c9a9" d="M 78.5,53.5 C 78.8333,53.5 79.1667,53.5 79.5,53.5C 79.5,88.5 79.5,123.5 79.5,158.5C 79.5,159.833 79.5,161.167 79.5,162.5C 87.5,162.5 95.5,162.5 103.5,162.5C 103.5,162.833 103.5,163.167 103.5,163.5C 95.1667,163.5 86.8333,163.5 78.5,163.5C 78.5,126.833 78.5,90.1667 78.5,53.5 Z"/></g>
<g><path style="opacity:1" fill="#4fb291" d="M 236.5,96.5 C 234.716,96.1075 233.05,95.4408 231.5,94.5C 230.694,93.2719 229.694,92.2719 228.5,91.5C 222.432,87.7013 215.765,85.7013 208.5,85.5C 203.518,84.9466 198.518,84.6133 193.5,84.5C 178.837,83.8334 164.004,83.5001 149,83.5C 133.818,83.5006 118.985,84.1673 104.5,85.5C 104.5,111.5 104.5,137.5 104.5,163.5C 104.167,163.5 103.833,163.5 103.5,163.5C 103.5,163.167 103.5,162.833 103.5,162.5C 103.5,135.5 103.5,108.5 103.5,81.5C 133.835,81.3334 164.168,81.5 194.5,82C 200.461,82.9968 206.461,83.6635 212.5,84C 222.466,84.8125 230.466,88.9792 236.5,96.5 Z"/></g>
<g><path style="opacity:1" fill="#1c5551" d="M 193.5,84.5 C 163.76,84.1751 134.093,84.5084 104.5,85.5C 118.985,84.1673 133.818,83.5006 149,83.5C 164.004,83.5001 178.837,83.8334 193.5,84.5 Z"/></g>
<g><path style="opacity:1" fill="#315059" d="M 193.5,84.5 C 198.518,84.6133 203.518,84.9466 208.5,85.5C 215.007,87.6655 221.673,89.6655 228.5,91.5C 229.694,92.2719 230.694,93.2719 231.5,94.5C 224.986,92.0875 218.319,89.9209 211.5,88C 206.778,87.2231 202.111,87.3897 197.5,88.5C 194.539,87.8169 194.205,86.9836 196.5,86C 167.167,85.3333 137.833,85.3333 108.5,86C 109.861,87.5843 110.528,89.4176 110.5,91.5C 107.612,91.7804 106.112,90.4471 106,87.5C 105.333,111.833 105.333,136.167 106,160.5C 113.558,162.447 121.391,163.114 129.5,162.5C 121.35,163.493 113.017,163.826 104.5,163.5C 104.5,137.5 104.5,111.5 104.5,85.5C 134.093,84.5084 163.76,84.1751 193.5,84.5 Z"/></g>
<g><path style="opacity:1" fill="#33495b" d="M 231.5,94.5 C 233.05,95.4408 234.716,96.1075 236.5,96.5C 239.474,99.1379 242.474,101.805 245.5,104.5C 246.5,105.833 247.5,107.167 248.5,108.5C 248.543,112.09 250.043,114.757 253,116.5C 255.323,121.064 257.157,125.73 258.5,130.5C 260.37,134.272 261.87,138.272 263,142.5C 263.798,144.259 263.631,145.926 262.5,147.5C 261.548,145.955 261.215,144.288 261.5,142.5C 260.5,142.5 259.5,142.5 258.5,142.5C 259.525,146.427 260.192,150.427 260.5,154.5C 257.956,154.896 255.789,154.229 254,152.5C 251.803,154.156 249.303,155.322 246.5,156C 245.364,157.145 244.364,158.312 243.5,159.5C 240.597,128.429 223.597,112.262 192.5,111C 171.503,110.5 150.503,110.333 129.5,110.5C 129.5,127.833 129.5,145.167 129.5,162.5C 121.391,163.114 113.558,162.447 106,160.5C 105.333,136.167 105.333,111.833 106,87.5C 106.112,90.4471 107.612,91.7804 110.5,91.5C 110.528,89.4176 109.861,87.5843 108.5,86C 137.833,85.3333 167.167,85.3333 196.5,86C 194.205,86.9836 194.539,87.8169 197.5,88.5C 202.111,87.3897 206.778,87.2231 211.5,88C 218.319,89.9209 224.986,92.0875 231.5,94.5 Z"/></g>
<g><path style="opacity:1" fill="#52a58e" d="M 208.5,85.5 C 215.765,85.7013 222.432,87.7013 228.5,91.5C 221.673,89.6655 215.007,87.6655 208.5,85.5 Z"/></g>
<g><path style="opacity:1" fill="#edfdf4" d="M 278.5,100.5 C 280.136,101.749 281.303,103.416 282,105.5C 283.11,101.721 284.61,101.554 286.5,105C 285.174,107.868 286.008,110.034 289,111.5C 289.145,115.027 289.978,118.36 291.5,121.5C 290.617,123.48 290.783,125.48 292,127.5C 292.654,126.304 293.154,126.304 293.5,127.5C 292.389,128.611 291.722,129.945 291.5,131.5C 293.569,141.047 294.569,150.714 294.5,160.5C 292.77,139.656 287.436,119.656 278.5,100.5 Z"/></g>
<g><path style="opacity:1" fill="#4dae8b" d="M 245.5,104.5 C 247.315,105.63 249.315,106.296 251.5,106.5C 251.5,107.833 251.5,109.167 251.5,110.5C 254.91,110.384 256.244,112.05 255.5,115.5C 256.675,115.281 257.675,115.614 258.5,116.5C 261.115,120.04 262.115,124.04 261.5,128.5C 258.163,121.151 253.829,114.484 248.5,108.5C 247.5,107.167 246.5,105.833 245.5,104.5 Z"/></g>
<g><path style="opacity:1" fill="#285455" d="M 248.5,108.5 C 253.829,114.484 258.163,121.151 261.5,128.5C 261.629,130.216 261.962,131.883 262.5,133.5C 261.363,132.211 260.03,131.211 258.5,130.5C 257.157,125.73 255.323,121.064 253,116.5C 250.043,114.757 248.543,112.09 248.5,108.5 Z"/></g>
<g><path style="opacity:1" fill="#55ac91" d="M 263.5,134.5 C 267.039,140.815 268.705,147.815 268.5,155.5C 268.167,155.5 267.833,155.5 267.5,155.5C 266.583,148.417 265.25,141.417 263.5,134.5 Z"/></g>
<g><path style="opacity:1" fill="#2f4c5b" d="M 258.5,130.5 C 260.03,131.211 261.363,132.211 262.5,133.5C 262.5,134.167 262.833,134.5 263.5,134.5C 265.25,141.417 266.583,148.417 267.5,155.5C 268.174,169.994 267.174,184.327 264.5,198.5C 263.402,204.265 261.402,209.599 258.5,214.5C 259.511,209.713 260.844,205.047 262.5,200.5C 262.013,199.554 261.68,198.554 261.5,197.5C 262.717,195.783 263.717,193.95 264.5,192C 264.167,191.5 263.833,191 263.5,190.5C 262.833,191.167 262.167,191.833 261.5,192.5C 260.231,190.305 260.231,188.139 261.5,186C 260.552,185.517 259.552,185.351 258.5,185.5C 258.665,188.85 258.498,192.183 258,195.5C 257.163,193.993 255.996,193.493 254.5,194C 253.137,195.945 252.303,198.112 252,200.5C 251.667,199.833 251.333,199.167 251,198.5C 249.887,199.711 248.72,199.711 247.5,198.5C 246.269,197.349 246.269,196.183 247.5,195C 246.063,192.77 245.063,190.77 244.5,189C 246.138,188.758 247.638,187.925 249,186.5C 250.188,187.563 250.688,188.897 250.5,190.5C 252.288,190.785 253.955,190.452 255.5,189.5C 254.289,188.28 254.289,187.113 255.5,186C 250.758,186.266 246.758,184.766 243.5,181.5C 243.5,174.167 243.5,166.833 243.5,159.5C 244.364,158.312 245.364,157.145 246.5,156C 249.303,155.322 251.803,154.156 254,152.5C 255.789,154.229 257.956,154.896 260.5,154.5C 260.192,150.427 259.525,146.427 258.5,142.5C 259.5,142.5 260.5,142.5 261.5,142.5C 261.215,144.288 261.548,145.955 262.5,147.5C 263.631,145.926 263.798,144.259 263,142.5C 261.87,138.272 260.37,134.272 258.5,130.5 Z"/></g>
<g><path style="opacity:1" fill="#334a5c" d="M 104.5,177.5 C 104.5,177.167 104.5,176.833 104.5,176.5C 112.833,176.5 121.167,176.5 129.5,176.5C 129.5,193.833 129.5,211.167 129.5,228.5C 153.169,228.667 176.836,228.5 200.5,228C 226.361,223.301 240.694,207.801 243.5,181.5C 246.758,184.766 250.758,186.266 255.5,186C 254.289,187.113 254.289,188.28 255.5,189.5C 253.955,190.452 252.288,190.785 250.5,190.5C 250.688,188.897 250.188,187.563 249,186.5C 247.638,187.925 246.138,188.758 244.5,189C 245.063,190.77 246.063,192.77 247.5,195C 246.269,196.183 246.269,197.349 247.5,198.5C 248.72,199.711 249.887,199.711 251,198.5C 251.333,199.167 251.667,199.833 252,200.5C 252.303,198.112 253.137,195.945 254.5,194C 255.996,193.493 257.163,193.993 258,195.5C 258.498,192.183 258.665,188.85 258.5,185.5C 259.552,185.351 260.552,185.517 261.5,186C 260.231,188.139 260.231,190.305 261.5,192.5C 262.167,191.833 262.833,191.167 263.5,190.5C 263.833,191 264.167,191.5 264.5,192C 263.717,193.95 262.717,195.783 261.5,197.5C 261.68,198.554 262.013,199.554 262.5,200.5C 260.844,205.047 259.511,209.713 258.5,214.5C 258.245,217.016 257.411,219.35 256,221.5C 250.385,230.615 243.219,238.281 234.5,244.5C 230.078,246.406 225.744,248.572 221.5,251C 217.297,252.569 212.964,253.402 208.5,253.5C 175.053,256.036 141.719,256.036 108.5,253.5C 108.5,232.5 108.5,211.5 108.5,190.5C 107.5,190.5 106.5,190.5 105.5,190.5C 105.5,186.5 105.5,182.5 105.5,178.5C 110.5,177.997 110.167,177.664 104.5,177.5 Z"/></g>
<g><path style="opacity:1" fill="#458b7c" d="M 267.5,155.5 C 267.833,155.5 268.167,155.5 268.5,155.5C 268.221,164.535 268.555,173.535 269.5,182.5C 267.908,186.267 267.075,190.267 267,194.5C 266.392,196.066 265.558,197.4 264.5,198.5C 267.174,184.327 268.174,169.994 267.5,155.5 Z"/></g>
<g><path style="opacity:1" fill="#4da58c" d="M 103.5,176.5 C 103.833,176.5 104.167,176.5 104.5,176.5C 104.5,176.833 104.5,177.167 104.5,177.5C 104.5,203.833 104.5,230.167 104.5,256.5C 103.624,256.631 102.957,256.298 102.5,255.5C 103.491,229.545 103.824,203.545 103.5,177.5C 103.5,177.167 103.5,176.833 103.5,176.5 Z"/></g>
<g><path style="opacity:1" fill="#80c8a7" d="M 103.5,176.5 C 103.5,176.833 103.5,177.167 103.5,177.5C 102.833,177.5 102.167,177.5 101.5,177.5C 94.1667,177.5 86.8333,177.5 79.5,177.5C 79.5,181.833 79.5,186.167 79.5,190.5C 79.5,222.5 79.5,254.5 79.5,286.5C 78.5015,250.004 78.1682,213.337 78.5,176.5C 86.8333,176.5 95.1667,176.5 103.5,176.5 Z"/></g>
<g><path style="opacity:1" fill="#40b883" d="M 101.5,177.5 C 102.786,202.821 102.786,228.154 101.5,253.5C 100.833,232.5 100.167,211.5 99.5,190.5C 97.8306,189.11 96.1639,188.777 94.5,189.5C 96.474,211.003 97.1407,232.67 96.5,254.5C 95.0695,254.421 93.7362,254.754 92.5,255.5C 90.4143,260.015 88.5809,264.681 87,269.5C 86.7978,267.744 86.2978,266.078 85.5,264.5C 85.1667,264.833 84.8333,265.167 84.5,265.5C 84.6787,272.071 84.6787,278.737 84.5,285.5C 83.1667,285.5 81.8333,285.5 80.5,285.5C 80.8315,253.662 80.4982,221.996 79.5,190.5C 79.5,186.167 79.5,181.833 79.5,177.5C 86.8333,177.5 94.1667,177.5 101.5,177.5 Z"/></g>
<g><path style="opacity:1" fill="#364a5f" d="M 105.5,190.5 C 106.5,190.5 107.5,190.5 108.5,190.5C 108.5,211.5 108.5,232.5 108.5,253.5C 107.5,253.5 106.5,253.5 105.5,253.5C 105.5,232.5 105.5,211.5 105.5,190.5 Z"/></g>
<g><path style="opacity:1" fill="#f0fcf4" d="M 293.5,176.5 C 294.163,178.473 294.496,180.639 294.5,183C 293.976,189.832 293.476,196.665 293,203.5C 289.821,211.858 287.488,220.525 286,229.5C 285.306,230.818 284.473,231.651 283.5,232C 284.112,234.058 285.112,235.891 286.5,237.5C 285.332,239.217 283.665,239.884 281.5,239.5C 281.519,241.06 281.852,242.56 282.5,244C 280.998,245.158 279.665,247.158 278.5,250C 278.95,251.285 279.617,252.452 280.5,253.5C 276.839,253.494 273.173,254.327 269.5,256C 269.957,256.414 270.291,256.914 270.5,257.5C 269.846,259.115 269.346,260.782 269,262.5C 266.853,261.524 264.686,261.691 262.5,263C 260.811,265.414 259.311,267.914 258,270.5C 257.578,268.574 256.411,267.574 254.5,267.5C 260.802,262.031 266.635,256.031 272,249.5C 286.139,227.247 293.305,202.914 293.5,176.5 Z"/></g>
<g><path style="opacity:1" fill="#40b785" d="M 101.5,177.5 C 102.167,177.5 102.833,177.5 103.5,177.5C 103.824,203.545 103.491,229.545 102.5,255.5C 102.957,256.298 103.624,256.631 104.5,256.5C 136.331,257.664 168.331,257.831 200.5,257C 202.708,256.809 204.708,256.309 206.5,255.5C 207.167,254.833 207.833,254.167 208.5,253.5C 212.964,253.402 217.297,252.569 221.5,251C 225.744,248.572 230.078,246.406 234.5,244.5C 234.5,245.5 234.5,246.5 234.5,247.5C 230.637,249.18 226.637,250.513 222.5,251.5C 222.67,252.822 222.337,253.989 221.5,255C 212.7,255.302 204.2,256.802 196,259.5C 170.004,258.197 144.004,258.197 118,259.5C 111.243,259.216 104.576,258.549 98,257.5C 97.3013,260.322 98.4679,261.988 101.5,262.5C 104.103,261.438 106.77,261.272 109.5,262C 110.337,263.011 110.67,264.178 110.5,265.5C 105.037,265.689 99.7041,266.355 94.5,267.5C 94.5,268.5 94.5,269.5 94.5,270.5C 100.426,270.691 106.26,270.024 112,268.5C 113.5,268.667 115,268.833 116.5,269C 114.655,270.128 112.655,270.628 110.5,270.5C 110.714,272.144 110.38,273.644 109.5,275C 104.511,275.499 99.5111,275.666 94.5,275.5C 94.5,277.5 94.5,279.5 94.5,281.5C 99.8437,281.334 105.177,281.501 110.5,282C 111.126,282.75 111.626,283.584 112,284.5C 115.5,281 119,277.5 122.5,274C 125.926,272.762 127.592,273.929 127.5,277.5C 153.502,277.333 179.502,277.5 205.5,278C 207.402,279.394 207.735,281.227 206.5,283.5C 201.113,283.405 195.78,283.905 190.5,285C 155.168,285.5 119.835,285.667 84.5,285.5C 84.6787,278.737 84.6787,272.071 84.5,265.5C 84.8333,265.167 85.1667,264.833 85.5,264.5C 86.2978,266.078 86.7978,267.744 87,269.5C 88.5809,264.681 90.4143,260.015 92.5,255.5C 93.7362,254.754 95.0695,254.421 96.5,254.5C 97.1407,232.67 96.474,211.003 94.5,189.5C 96.1639,188.777 97.8306,189.11 99.5,190.5C 100.167,211.5 100.833,232.5 101.5,253.5C 102.786,228.154 102.786,202.821 101.5,177.5 Z"/></g>
<g><path style="opacity:1" fill="#244b4f" d="M 104.5,177.5 C 110.167,177.664 110.5,177.997 105.5,178.5C 105.5,182.5 105.5,186.5 105.5,190.5C 105.5,211.5 105.5,232.5 105.5,253.5C 106.5,253.5 107.5,253.5 108.5,253.5C 141.719,256.036 175.053,256.036 208.5,253.5C 207.833,254.167 207.167,254.833 206.5,255.5C 172.514,256.443 138.514,256.776 104.5,256.5C 104.5,230.167 104.5,203.833 104.5,177.5 Z"/></g>
<g><path style="opacity:1" fill="#50af94" d="M 206.5,255.5 C 204.708,256.309 202.708,256.809 200.5,257C 168.331,257.831 136.331,257.664 104.5,256.5C 138.514,256.776 172.514,256.443 206.5,255.5 Z"/></g>
<g><path style="opacity:1" fill="#4fae85" d="M 79.5,190.5 C 80.4982,221.996 80.8315,253.662 80.5,285.5C 81.8333,285.5 83.1667,285.5 84.5,285.5C 119.835,285.667 155.168,285.5 190.5,285C 195.78,283.905 201.113,283.405 206.5,283.5C 211.29,281.966 216.29,281.299 221.5,281.5C 212.86,284.333 203.86,285.833 194.5,286C 156.168,286.5 117.835,286.667 79.5,286.5C 79.5,254.5 79.5,222.5 79.5,190.5 Z"/></g>
<g><path style="opacity:1" fill="#eafef6" d="M 242.5,274.5 C 240.635,277.023 238.135,278.689 235,279.5C 235.986,284.188 235.152,284.522 232.5,280.5C 227.185,282.238 222.018,284.238 217,286.5C 171.186,287.778 125.352,287.778 79.5,286.5C 117.835,286.667 156.168,286.5 194.5,286C 203.86,285.833 212.86,284.333 221.5,281.5C 228.873,280.153 235.873,277.82 242.5,274.5 Z"/></g>
</svg>
